HIERARCHY
ROOT Hips
{
 OFFSET 0.000000 0.000000 0.000000
 CHANNELS 6 Xposition Yposition Zposition Yrotation Xrotation Zrotation
 JOINT Chest
 {
  OFFSET 0.000000 13.173100 -0.061900
  CHANNELS 3 Yrotation Xrotation Zrotation
  JOINT Chest2
  {
   OFFSET 0.000000 8.040800 0.126200
   CHANNELS 3 Yrotation Xrotation Zrotation
   JOINT Chest3
   {
    OFFSET 0.000000 7.994400 0.000000
    CHANNELS 3 Yrotation Xrotation Zrotation
    JOINT Chest4
    {
     OFFSET 0.000000 7.986200 0.000000
     CHANNELS 3 Yrotation Xrotation Zrotation
     JOINT Neck
     {
      OFFSET 0.000000 12.259400 0.000000
      CHANNELS 3 Yrotation Xrotation Zrotation
      JOINT Head
      {
       OFFSET 0.000000 7.518700 0.267100
       CHANNELS 3 Yrotation Xrotation Zrotation
       End Site
       {
        OFFSET 0.000000 13.617700 0.141000
       }
      }
     }
     JOINT RightCollar
     {
      OFFSET -2.983800 8.314300 0.000000
      CHANNELS 3 Yrotation Xrotation Zrotation
      JOINT RightShoulder
      {
       OFFSET -16.133400 0.000000 0.000000
       CHANNELS 3 Yrotation Xrotation Zrotation
       JOINT RightElbow
       {
        OFFSET 0.000000 -29.822100 0.000000
        CHANNELS 3 Yrotation Xrotation Zrotation
        JOINT RightWrist
        {
         OFFSET 0.000000 -24.437700 0.010900
         CHANNELS 3 Yrotation Xrotation Zrotation
         End Site
         {
          OFFSET 0.000000 -18.312300 0.000000
         }
        }
       }
      }
     }
     JOINT LeftCollar
     {
      OFFSET 2.983800 8.314300 0.000000
      CHANNELS 3 Yrotation Xrotation Zrotation
      JOINT LeftShoulder
      {
       OFFSET 16.133400 0.000000 0.000000
       CHANNELS 3 Yrotation Xrotation Zrotation
       JOINT LeftElbow
       {
        OFFSET 0.000000 -29.822100 0.000000
        CHANNELS 3 Yrotation Xrotation Zrotation
        JOINT LeftWrist
        {
         OFFSET 0.000000 -24.437700 0.010900
         CHANNELS 3 Yrotation Xrotation Zrotation
         End Site
         {
          OFFSET 0.000000 -18.312300 0.000000
         }
        }
       }
      }
     }
    }
   }
  }
 }
 JOINT RightHip
 {
  OFFSET -11.206700 0.306200 0.030900
  CHANNELS 3 Yrotation Xrotation Zrotation
  JOINT RightKnee
  {
   OFFSET 0.000000 -57.334900 0.009400
   CHANNELS 3 Yrotation Xrotation Zrotation
   JOINT RightAnkle
   {
    OFFSET 0.000000 -43.376200 0.036600
    CHANNELS 3 Yrotation Xrotation Zrotation
    JOINT RightToe
    {
     OFFSET 0.000000 -10.035500 18.363100
     CHANNELS 3 Yrotation Xrotation Zrotation
     End Site
     {
      OFFSET 0.000000 -1.618500 7.239000
     }
    }
   }
  }
 }
 JOINT LeftHip
 {
  OFFSET 11.206700 0.306200 0.030900
  CHANNELS 3 Yrotation Xrotation Zrotation
  JOINT LeftKnee
  {
   OFFSET 0.000000 -57.334900 0.009400
   CHANNELS 3 Yrotation Xrotation Zrotation
   JOINT LeftAnkle
   {
    OFFSET 0.000000 -43.376200 0.036600
    CHANNELS 3 Yrotation Xrotation Zrotation
    JOINT LeftToe
    {
     OFFSET 0.000000 -10.035500 18.363100
     CHANNELS 3 Yrotation Xrotation Zrotation
     End Site
     {
      OFFSET 0.000000 -1.618500 7.239000
     }
    }
   }
  }
 }
}
MOTION
Frames: 16
Frame Time: 0.008333
-77.055743 70.724921 53.520061 -169.369822 -32.367356 -11.349501 -4.057969 11.919190 5.930724 -2.796855 6.997824 1.424796 -3.475061 8.757274 1.730213 -2.796891 6.997866 1.424773 2.596010 22.716524 -1.744608 3.201488 -1.306646 -2.477211 6.879819 -0.561967 -1.762605 0.380983 -24.202153 -0.436708 43.627359 -31.023100 -24.632802 5.751702 2.708126 -22.772913 -10.341612 -1.996309 -6.500009 -10.096124 -22.576189 3.739335 -48.221054 -19.206575 37.192030 2.158890 -4.971695 2.113569 -24.715255 -26.366609 3.909874 55.314694 87.014252 53.230538 1.677327 -26.303627 -4.125456 -1.296482 2.509460 -0.685437 -14.705509 -43.479770 7.489677 178.962284 73.897928 176.885599 -2.604040 -24.743954 1.453453 -0.148246 -0.859923 -0.068842
-77.076829 70.720881 53.545654 -169.335380 -32.445386 -11.363242 -4.091780 11.898531 5.912677 -2.804118 6.982177 1.423977 -3.484198 8.737799 1.729235 -2.804140 6.982224 1.424002 2.611343 22.676283 -1.761267 3.221701 -1.353204 -2.498542 6.905747 -0.557289 -1.744740 0.415103 -24.245266 -0.439634 43.426704 -30.886770 -24.405014 5.736892 2.594559 -22.920744 -10.351007 -2.007431 -6.505615 -10.094237 -22.598173 3.755368 -48.059111 -19.067192 36.918585 2.174410 -5.086749 2.178749 -24.662125 -26.320435 3.875034 54.956848 87.027517 52.857982 1.643463 -26.251760 -4.070282 -1.291280 2.495205 -0.680343 -14.767230 -43.419417 7.486814 179.010674 73.910457 176.882018 -2.590962 -24.693558 1.448902 -0.152131 -0.869175 -0.068927
-77.103598 70.716580 53.572459 -169.303942 -32.519487 -11.354512 -4.131274 11.869677 5.872963 -2.811081 6.964259 1.422756 -3.493023 8.715415 1.727711 -2.811047 6.964291 1.422793 2.628331 22.636567 -1.777841 3.243660 -1.399042 -2.520156 6.935125 -0.541549 -1.725701 0.445414 -24.282252 -0.440752 43.225326 -30.761003 -24.178126 5.729224 2.475448 -23.082565 -10.358148 -2.009249 -6.510734 -10.093542 -22.612448 3.768917 -47.890951 -18.936542 36.642237 2.267843 -5.313458 2.299578 -24.572897 -26.296971 3.812842 54.714117 87.049535 52.622691 1.590937 -26.189209 -4.014513 -1.271001 2.466762 -0.666288 -14.766925 -43.369735 7.418731 179.082425 73.931571 176.935452 -2.554108 -24.643118 1.434954 -0.146665 -0.876353 -0.065267
-77.126943 70.715851 53.596089 -169.274127 -32.607462 -11.365937 -4.166145 11.854920 5.852676 -2.807084 7.008624 1.421437 -3.509624 8.628706 1.732474 -2.817725 6.945497 1.421958 2.646092 22.594990 -1.796486 3.266844 -1.447024 -2.544212 6.968115 -0.517706 -1.709115 0.471584 -24.315081 -0.442528 43.019742 -30.651291 -23.944904 5.736153 2.340795 -23.288605 -10.364371 -2.007666 -6.513702 -10.091613 -22.624221 3.775885 -47.711384 -18.824797 36.362335 2.335932 -5.505634 2.477964 -24.524286 -26.237786 3.765458 54.403020 87.049533 52.300348 1.571270 -26.139402 -3.989457 -1.260761 2.466285 -0.657873 -14.768731 -43.296019 7.377348 179.074021 73.948816 176.916116 -2.560590 -24.609477 1.433457 -0.131605 -0.875650 -0.064209
-77.152280 70.712712 53.624086 -169.238718 -32.669527 -11.369751 -4.200550 11.867720 5.827551 -2.825532 6.904716 1.423122 -3.513525 8.636302 1.728960 -2.824116 6.926090 1.421637 2.663485 22.551614 -1.816946 3.290028 -1.497027 -2.570126 7.003084 -0.489964 -1.694138 0.491393 -24.342468 -0.445676 42.822459 -30.555172 -23.709351 5.749831 2.181275 -23.570615 -10.373450 -2.008076 -6.515643 -10.084528 -22.637636 3.779084 -47.511901 -18.726402 36.072593 2.394444 -5.686796 2.666756 -24.503392 -26.200572 3.711746 54.166104 87.037736 52.060307 1.543716 -26.110403 -3.975163 -1.239403 2.476058 -0.648039 -14.775922 -43.251701 7.326504 179.038713 73.970810 176.869913 -2.560721 -24.573848 1.429666 -0.127928 -0.867838 -0.065380
-77.176578 70.710261 53.652083 -169.215655 -32.730326 -11.370895 -4.224329 11.878193 5.805965 -2.842042 6.801076 1.426465 -3.517301 8.641578 1.725953 -2.830342 6.905247 1.421355 2.681010 22.510860 -1.837110 3.313312 -1.543893 -2.595751 7.040129 -0.460190 -1.677925 0.502273 -24.361587 -0.451104 42.662850 -30.467431 -23.486987 5.749427 1.998792 -23.943499 -10.386028 -2.011621 -6.519369 -10.069687 -22.651093 3.780239 -47.299350 -18.625990 35.769623 2.452996 -5.855254 2.827317 -24.474380 -26.166169 3.683721 53.710177 87.044148 51.563995 1.519598 -26.077129 -3.913221 -1.243094 2.478597 -0.650278 -14.764082 -43.207537 7.279713 179.000441 73.992966 176.824724 -2.567979 -24.543800 1.433841 -0.124231 -0.857997 -0.066201
-77.209823 70.710192 53.675857 -169.190249 -32.814554 -11.335287 -4.280754 11.781769 5.739879 -2.840436 6.856955 1.421652 -3.526144 8.613841 1.725499 -2.837303 6.882949 1.420974 2.702214 22.477520 -1.854990 3.340212 -1.581928 -2.619855 7.084534 -0.428215 -1.661052 0.497892 -24.373702 -0.459419 42.559041 -30.381148 -23.286726 5.723221 1.799467 -24.397545 -10.396012 -2.018028 -6.524867 -10.052141 -22.660231 3.777194 -47.087578 -18.516151 35.464247 2.511011 -6.026595 2.958512 -24.359244 -26.145987 3.605084 53.242694 87.091853 51.075455 1.468181 -26.013783 -3.808680 -1.234824 2.436556 -0.645332 -14.719055 -43.143558 7.172940 178.942325 74.024586 176.749253 -2.572216 -24.505089 1.437016 -0.124192 -0.854043 -0.065429
-77.234053 70.710975 53.700669 -169.166006 -32.888362 -11.332963 -4.319367 11.727603 5.711434 -2.845478 6.860596 1.420372 -3.536371 8.586093 1.724678 -2.845457 6.860634 1.420314 2.727713 22.452648 -1.870685 3.371414 -1.609737 -2.642695 7.138493 -0.397136 -1.645017 0.479130 -24.381137 -0.474083 42.500213 -30.292001 -23.104550 5.671075 1.588420 -24.910294 -10.398277 -2.028104 -6.533989 -10.038267 -22.663742 3.771407 -46.886595 -18.398330 35.170254 2.559216 -6.194375 3.062147 -24.300756 -26.103315 3.563280 52.780184 87.100027 50.583163 1.433872 -25.970775 -3.732904 -1.238729 2.429658 -0.651172 -14.710737 -43.086070 7.117815 178.847479 74.046548 176.650040 -2.582578 -24.465797 1.426597 -0.122419 -0.851298 -0.065339
-77.255644 70.712001 53.726560 -169.129534 -32.953426 -11.341902 -4.362184 11.691454 5.693967 -2.854319 6.839289 1.418635 -3.547501 8.559455 1.722473 -2.854333 6.839325 1.418607 2.755749 22.434984 -1.883684 3.404808 -1.628901 -2.663306 7.198043 -0.371383 -1.629047 0.460400 -24.383357 -0.500203 42.458969 -30.202879 -22.936509 5.599291 1.365790 -25.451771 -10.395673 -2.043251 -6.547316 -10.025074 -22.664306 3.763981 -46.707340 -18.274022 34.888995 2.603145 -6.343569 3.137625 -24.266417 -26.059372 3.518571 52.420018 87.090740 50.209266 1.404200 -25.932975 -3.686414 -1.230968 2.430097 -0.652124 -14.716830 -43.042363 7.065415 178.677119 74.064172 176.492319 -2.602859 -24.407897 1.394675 -0.116165 -0.865112 -0.056634
-77.271015 70.723197 53.740115 -169.098110 -33.083897 -11.378722 -4.379885 11.721438 5.705981 -2.863477 6.818526 1.416129 -3.559064 8.533386 1.719380 -2.863504 6.818546 1.416165 2.784867 22.424211 -1.892997 3.438553 -1.639970 -2.680191 7.259735 -0.348370 -1.611889 0.457004 -24.383149 -0.544748 42.409583 -30.117532 -22.775685 5.515876 1.126807 -25.988381 -10.391626 -2.064583 -6.564431 -10.008976 -22.662977 3.755564 -46.551196 -18.143922 34.611062 2.609794 -6.450283 3.212850 -24.237531 -25.933662 3.483389 51.985845 87.067549 49.728926 1.406225 -25.879170 -3.633313 -1.262571 2.419542 -0.664082 -14.708040 -42.914111 7.036634 178.597167 74.076658 176.419660 -2.610236 -24.374513 1.380250 -0.113905 -0.878692 -0.053869
-77.285216 70.722268 53.772987 -169.082407 -33.116200 -11.388771 -4.401863 11.651824 5.710031 -2.867963 6.860297 1.407347 -3.574535 8.444870 1.727151 -2.873721 6.797610 1.413628 2.814649 22.421878 -1.898951 3.472292 -1.641139 -2.693619 7.322068 -0.320226 -1.594535 0.475905 -24.385098 -0.613170 42.338321 -30.039809 -22.608799 5.426303 0.874256 -26.497793 -10.385456 -2.088801 -6.588040 -9.990467 -22.659920 3.749107 -46.411154 -18.005862 34.330790 2.662035 -6.559731 3.244482 -24.190059 -25.924292 3.481549 51.485168 87.065008 49.204154 1.373283 -25.823543 -3.563196 -1.260234 2.423516 -0.672817 -14.718306 -42.903910 7.021696 178.507647 74.096534 176.338273 -2.617457 -24.319099 1.363663 -0.109906 -0.885711 -0.054050
-77.300640 70.729013 53.796279 -169.051186 -33.200202 -11.403657 -4.425834 11.634939 5.707848 -2.883110 6.807364 1.407344 -3.587383 8.449298 1.719051 -2.885410 6.776119 1.411089 2.845314 22.429459 -1.902444 3.506598 -1.630632 -2.704639 7.382221 -0.280651 -1.580515 0.515996 -24.394580 -0.699612 42.251367 -29.967507 -22.431645 5.326630 0.620369 -26.972404 -10.374412 -2.109207 -6.616600 -9.974691 -22.657963 3.742354 -46.287471 -17.852294 34.053076 2.700925 -6.642044 3.262748 -24.132556 -25.858888 3.444389 51.041535 87.052332 48.744879 1.333641 -25.769090 -3.501304 -1.265795 2.409101 -0.673468 -14.711309 -42.830665 6.984038 178.448479 74.119950 176.283033 -2.622735 -24.276210 1.353898 -0.106203 -0.889204 -0.054133
-77.315001 70.732801 53.825536 -169.026508 -33.255159 -11.409190 -4.452726 11.587630 5.700880 -2.896952 6.753591 1.408804 -3.601261 8.452389 1.710026 -2.896959 6.753634 1.408732 2.874174 22.447159 -1.903025 3.538383 -1.608298 -2.712129 7.435764 -0.231156 -1.570535 0.565602 -24.411280 -0.796177 42.165678 -29.896335 -22.247832 5.216914 0.382074 -27.406488 -10.358431 -2.119667 -6.644866 -9.971234 -22.659601 3.733930 -46.178884 -17.682464 33.782592 2.716058 -6.714657 3.294240 -24.084426 -25.826597 3.420779 50.612419 87.041905 48.293489 1.294113 -25.714569 -3.442296 -1.274671 2.397897 -0.670595 -14.710384 -42.791705 6.951610 178.390931 74.146879 176.229677 -2.627650 -24.226665 1.340695 -0.107810 -0.885891 -0.054431
-77.338810 70.740256 53.849137 -168.985872 -33.342482 -11.383040 -4.497433 11.570786 5.648494 -2.907547 6.730088 1.406558 -3.614638 8.422993 1.707149 -2.907575 6.730050 1.406473 2.899799 22.473399 -1.899890 3.549605 -1.516247 -2.721060 7.479698 -0.183722 -1.561394 0.608002 -24.424066 -0.898797 42.096328 -29.826930 -22.055353 5.113717 0.173639 -27.803119 -10.340585 -2.118602 -6.670403 -9.980129 -22.665596 3.728259 -46.083148 -17.506193 33.520306 2.720651 -6.781379 3.331157 -23.977157 -25.791273 3.342020 50.264082 87.061708 47.947579 1.199246 -25.641801 -3.376279 -1.220555 2.367033 -0.646042 -14.671129 -42.722493 6.844428 178.314361 74.184768 176.156711 -2.631415 -24.170373 1.324599 -0.102447 -0.892861 -0.050712
-77.353510 70.747993 53.874213 -168.951545 -33.417753 -11.388738 -4.536197 11.545357 5.631684 -2.917879 6.706643 1.404307 -3.627722 8.393696 1.704366 -2.917914 6.706603 1.404296 2.925153 22.504590 -1.894983 3.584994 -1.509544 -2.719615 7.518362 -0.147250 -1.556075 0.630088 -24.428980 -0.996420 42.035912 -29.760293 -21.859155 5.036364 -0.010381 -28.169223 -10.319849 -2.112310 -6.693070 -9.990329 -22.677525 3.722848 -46.010731 -17.327666 33.268155 2.719079 -6.837591 3.374562 -23.948272 -25.730542 3.307486 49.798177 87.044791 47.439119 1.169817 -25.602619 -3.315299 -1.233766 2.367507 -0.649455 -14.659546 -42.661342 6.788398 178.199498 74.212416 176.060223 -2.643339 -24.116878 1.297267 -0.097668 -0.902150 -0.045721
-77.376593 70.757227 53.895435 -168.906924 -33.512065 -11.364411 -4.594696 11.539562 5.575220 -2.928306 6.684564 1.401650 -3.640886 8.366088 1.701048 -2.928335 6.684561 1.401676 2.953317 22.538602 -1.889513 3.622239 -1.496549 -2.716799 7.558124 -0.114726 -1.559829 0.630693 -24.437306 -1.077592 41.963256 -29.695307 -21.670521 4.987846 -0.190679 -28.509159 -10.294006 -2.106312 -6.712806 -9.995943 -22.696197 3.713312 -45.967003 -17.140995 33.027169 2.712898 -6.882016 3.429242 -23.905043 -25.668356 3.223430 49.358952 87.033742 46.972491 1.104253 -25.558375 -3.267543 -1.200307 2.358959 -0.634327 -14.621984 -42.579770 6.686601 178.139252 74.252169 175.992693 -2.648682 -24.069148 1.290527 -0.098497 -0.899735 -0.043212
